<?xml version="1.0" encoding="UTF-8" standalone="no"?>
<!-- Created with Inkscape (http://www.inkscape.org/) -->

<svg
   xmlns:dc="http://purl.org/dc/elements/1.1/"
   xmlns:cc="http://creativecommons.org/ns#"
   xmlns:rdf="http://www.w3.org/1999/02/22-rdf-syntax-ns#"
   xmlns:svg="http://www.w3.org/2000/svg"
   xmlns="http://www.w3.org/2000/svg"
   xmlns:sodipodi="http://sodipodi.sourceforge.net/DTD/sodipodi-0.dtd"
   xmlns:inkscape="http://www.inkscape.org/namespaces/inkscape"
   width="11.256433mm"
   height="13.842436mm"
   viewBox="0 0 39.885001 49.048001"
   id="svg3434"
   version="1.1"
   inkscape:version="0.91 r13725"
   sodipodi:docname="letsencrypt_gray.svg">
  <defs
     id="defs3436">
    <filter
       style="color-interpolation-filters:sRGB;"
       inkscape:label="Greyscale"
       id="filter3460">
      <feColorMatrix
         values="0.21 0.72 0.072 0 0 0.21 0.72 0.072 0 0 0.21 0.72 0.072 0 0 0 0 0 1 0 "
         id="feColorMatrix3462" />
    </filter>
    <filter
       style="color-interpolation-filters:sRGB;"
       inkscape:label="Greyscale"
       id="filter3464">
      <feColorMatrix
         values="0.21 0.72 0.072 0 0 0.21 0.72 0.072 0 0 0.21 0.72 0.072 0 0 0 0 0 1 0 "
         id="feColorMatrix3466" />
    </filter>
  </defs>
  <sodipodi:namedview
     id="base"
     pagecolor="#ffffff"
     bordercolor="#666666"
     borderopacity="1.0"
     inkscape:pageopacity="0.0"
     inkscape:pageshadow="2"
     inkscape:zoom="0.35"
     inkscape:cx="-397.91464"
     inkscape:cy="1.6668553"
     inkscape:document-units="px"
     inkscape:current-layer="layer1"
     showgrid="false"
     fit-margin-top="0"
     fit-margin-left="0"
     fit-margin-right="0"
     fit-margin-bottom="0"
     inkscape:window-width="1920"
     inkscape:window-height="1018"
     inkscape:window-x="3592"
     inkscape:window-y="-8"
     inkscape:window-maximized="1" />
  <metadata
     id="metadata3439">
    <rdf:RDF>
      <cc:Work
         rdf:about="">
        <dc:format>image/svg+xml</dc:format>
        <dc:type
           rdf:resource="http://purl.org/dc/dcmitype/StillImage" />
        <dc:title></dc:title>
      </cc:Work>
    </rdf:RDF>
  </metadata>
  <g
     inkscape:label="Layer 1"
     inkscape:groupmode="layer"
     id="layer1"
     transform="translate(-345.77178,-484.98106)">
    <g
       transform="translate(333.24478,465.56106)"
       id="svg_16"
       inkscape:export-xdpi="90"
       inkscape:export-ydpi="90"
       style="filter:url(#filter3460)">
      <path
         style="fill:#f9a11d"
         inkscape:connector-curvature="0"
         id="svg_17"
         d="m 46.488998,37.568001 -8.039997,0 0,-4.128002 c 0,-3.296997 -2.683002,-5.979 -5.98,-5.979 -3.297001,0 -5.979,2.683002 -5.979,5.979 l 0,4.128002 -8.040001,0 0,-4.128002 c 0,-7.73 6.288998,-14.019999 14.02,-14.019999 7.731002,0 14.02,6.289 14.02,14.019999 l 0,4.128002 -0.001,0 z" />
    </g>
    <path
       inkscape:connector-curvature="0"
       style="fill:#2c3c69;filter:url(#filter3464)"
       id="svg_18"
       d="m 382.97678,503.12906 -34.525,0 c -1.474,0 -2.68,1.206 -2.68,2.68 l 0,25.54 c 0,1.474 1.206,2.68 2.68,2.68 l 34.525,0 c 1.474,0 2.68,-1.206 2.68,-2.68 l 0,-25.54 c 0,-1.474 -1.206,-2.68 -2.68,-2.68 z m -15.513,16.769 0,3.461 c 0,0.966 -0.784,1.749 -1.749,1.749 -0.965,0 -1.749,-0.784 -1.749,-1.749 l 0,-3.46 c -1.076,-0.611 -1.803,-1.764 -1.803,-3.09 0,-1.962 1.591,-3.552 3.552,-3.552 1.962,0 3.552,1.591 3.552,3.552 0,1.32501 -0.727,2.47801 -1.803,3.08901 z"
       inkscape:export-xdpi="90"
       inkscape:export-ydpi="90" />
  </g>
</svg>
